<svg xmlns="http://www.w3.org/2000/svg" viewBox="0 0 720 280" font-family="'Segoe UI', system-ui, sans-serif">
<rect width="720" height="280" fill="#0b0f19" rx="10"/>
<text x="360.0" y="24" font-family="'Segoe UI', system-ui, sans-serif" font-size="15" fill="#e5e7eb" text-anchor="middle" font-weight="600" opacity="1">Leading and lagging drift indicators</text>
<line x1="80" y1="60" x2="80" y2="240" stroke="#4b5563" stroke-width="1.5" opacity="1"/>
<line x1="80" y1="240" x2="620" y2="240" stroke="#4b5563" stroke-width="1.5" opacity="1"/>
<text x="350.0" y="266" font-family="'Segoe UI', system-ui, sans-serif" font-size="11" fill="#9ca3af" text-anchor="middle" font-weight="400" opacity="1">time</text>
<text x="620" y="76" font-family="'Segoe UI', system-ui, sans-serif" font-size="10.5" fill="#fbbf24" text-anchor="end" font-weight="400" opacity="1">input distribution shift (leading)</text>
<polyline points="80.0,233.0 90.8,233.0 101.6,233.0 112.4,233.0 123.2,233.0 134.0,233.0 144.8,233.0 155.60000000000002,233.0 166.4,233.0 177.2,233.0 188.0,233.0 198.8,233.0 209.60000000000002,233.0 220.4,233.0 231.20000000000002,233.0 242.0,233.0 252.8,233.0 263.6,233.0 274.4,233.0 285.20000000000005,233.0 296.0,233.0 306.8,230.2 317.6,227.4 328.4,224.6 339.20000000000005,221.8 350.0,219.0 360.8,216.2 371.6,213.4 382.40000000000003,210.6 393.20000000000005,207.8 404.0,205.0 414.8,202.2 425.6,199.4 436.40000000000003,196.6 447.20000000000005,193.8 458.0,191.0 468.8,188.2 479.6,185.4 490.40000000000003,182.6 501.20000000000005,179.8 512.0,177.0 522.8,174.2 533.6,171.4 544.4000000000001,168.6 555.2,165.8 566.0,163.0 576.8,160.2 587.6,157.39999999999998 598.4000000000001,154.60000000000002 609.2,151.8 620.0,149.0" fill="none" stroke="#fbbf24" stroke-width="2.2" stroke-linejoin="round" stroke-linecap="round" opacity="1"/>
<text x="620" y="136" font-family="'Segoe UI', system-ui, sans-serif" font-size="10.5" fill="#fb7185" text-anchor="end" font-weight="400" opacity="1">quality score (lagging)</text>
<polyline points="80.0,100.0 90.8,100.0 101.6,100.0 112.4,100.0 123.2,100.0 134.0,100.0 144.8,100.0 155.60000000000002,100.0 166.4,100.0 177.2,100.0 188.0,100.0 198.8,100.0 209.60000000000002,100.0 220.4,100.0 231.20000000000002,100.0 242.0,100.0 252.8,100.0 263.6,100.0 274.4,100.0 285.20000000000005,100.0 296.0,100.0 306.8,100.0 317.6,100.0 328.4,100.0 339.20000000000005,100.0 350.0,100.0 360.8,100.0 371.6,100.0 382.40000000000003,100.0 393.20000000000005,105.0909090909091 404.0,110.18181818181819 414.8,115.27272727272728 425.6,120.36363636363637 436.40000000000003,125.45454545454547 447.20000000000005,130.54545454545456 458.0,135.63636363636365 468.8,140.72727272727275 479.6,145.8181818181818 490.40000000000003,150.9090909090909 501.20000000000005,156.0 512.0,161.09090909090907 522.8,166.1818181818182 533.6,171.27272727272728 544.4000000000001,176.36363636363637 555.2,181.45454545454547 566.0,186.54545454545456 576.8,191.63636363636365 587.6,196.72727272727272 598.4000000000001,201.8181818181818 609.2,206.9090909090909 620.0,212.0" fill="none" stroke="#fb7185" stroke-width="2.2" stroke-linejoin="round" stroke-linecap="round" opacity="1"/>
<line x1="296.0" y1="240" x2="296.0" y2="111.19999999999999" stroke="#4b5563" stroke-width="1.2" opacity="1" stroke-dasharray="5,4"/>
<text x="296.0" y="105.6" font-family="'Segoe UI', system-ui, sans-serif" font-size="9.5" fill="#9ca3af" text-anchor="middle" font-weight="400" opacity="1">distribution starts shifting</text>
<line x1="382.40000000000003" y1="240" x2="382.40000000000003" y2="111.19999999999999" stroke="#4b5563" stroke-width="1.2" opacity="1" stroke-dasharray="5,4"/>
<text x="382.40000000000003" y="105.6" font-family="'Segoe UI', system-ui, sans-serif" font-size="9.5" fill="#fb7185" text-anchor="middle" font-weight="400" opacity="1">quality drops 8 days later</text>
<text x="360" y="268" font-family="'Segoe UI', system-ui, sans-serif" font-size="11.5" fill="#9ca3af" text-anchor="middle" font-weight="400" opacity="1">monitor inputs NOW so you act before quality metrics tell you it&#x27;s already too late</text>
</svg>
